<svg xmlns="http://www.w3.org/2000/svg" xmlns:xlink="http://www.w3.org/1999/xlink" version="1.1" x="0px" y="0px" viewBox="0 0 32 40" enable-background="new 0 0 32 32" xml:space="preserve"><g><path d="M14,17H3c-0.5522461,0-1,0.4477539-1,1c0,6.6166992,5.3833008,12,12,12c0.5522461,0,1-0.4477539,1-1V18   C15,17.4477539,14.5522461,17,14,17z"/><path d="M29,17H18c-0.5527344,0-1,0.4477539-1,1v11c0,0.5522461,0.4472656,1,1,1c6.6171875,0,12-5.3833008,12-12   C30,17.4477539,29.5527344,17,29,17z"/><path d="M14,2C7.3833008,2,2,7.3833008,2,14c0,0.5522461,0.4477539,1,1,1h11c0.5522461,0,1-0.4477539,1-1V3   C15,2.4477539,14.5522461,2,14,2z"/><path d="M18,15h11c0.5527344,0,1-0.4477539,1-1c0-6.6166992-5.3828125-12-12-12c-0.5527344,0-1,0.4477539-1,1v11   C17,14.5522461,17.4472656,15,18,15z"/></g><text x="0" y="47" fill="#000000" font-size="5px" font-weight="bold" font-family="'Helvetica Neue', Helvetica, Arial-Unicode, Arial, Sans-serif">Created by M. Oki Orlando</text><text x="0" y="52" fill="#000000" font-size="5px" font-weight="bold" font-family="'Helvetica Neue', Helvetica, Arial-Unicode, Arial, Sans-serif">from the Noun Project</text></svg>